<svg width="1826" height="1565" viewBox="0 0 1826 1565" fill="none" xmlns="http://www.w3.org/2000/svg">
<g clip-path="url(#clip0_1447_3)">
<rect x="152.107" y="160.799" width="1186.44" height="1216.86" fill="url(#paint0_linear_1447_3)"/>
<mask id="mask0_1447_3" style="mask-type:luminance" maskUnits="userSpaceOnUse" x="0" y="12" width="1826" height="1540">
<path d="M1825.29 12.9513L0 12.9513V1551.59H1825.29V12.9513Z" fill="white"/>
</mask>
<g mask="url(#mask0_1447_3)">
<path d="M1703.6 12.9513L1484.56 12.9513V1523.28H1703.6V12.9513Z" fill="white"/>
<path d="M1825.29 161.512H1703.6V1374.73H1825.29V161.512Z" fill="white"/>
<path d="M1399.39 99.6083L85.1808 99.6083V1436.63L1399.39 1436.63V99.6083Z" stroke="white" stroke-width="173.316"/>
</g>
<path d="M546.774 776.146L548.287 906.541L483.09 907.298L480.82 711.704L937.205 706.409L939.474 902.002L874.276 902.759L875.033 967.957L809.835 968.713L810.592 1033.91L614.998 1036.18L614.242 970.983L549.044 971.739L548.287 906.541L613.485 905.785L614.242 970.983L809.835 968.713L809.079 903.515L874.276 902.759L872.763 772.363L546.774 776.146Z" fill="white"/>
<path d="M801.711 551.532L866.909 550.776L867.666 615.974L802.468 616.73L801.711 551.532ZM540.92 554.558L606.118 553.802L606.874 619L541.677 619.756L540.92 554.558Z" fill="white"/>
</g>
<defs>
<linearGradient id="paint0_linear_1447_3" x1="745.326" y1="160.799" x2="745.326" y2="1377.66" gradientUnits="userSpaceOnUse">
<stop/>
<stop offset="1" stop-color="#3C3C3C"/>
</linearGradient>
<clipPath id="clip0_1447_3">
<rect width="1825.29" height="1564.53" fill="white"/>
</clipPath>
</defs>
</svg>
