<svg width="16" height="16" viewBox="0 0 16 16" fill="none" xmlns="http://www.w3.org/2000/svg">
<path d="M5.09331 6.92001C5.09331 7.08667 5.10665 7.22001 5.13998 7.33334C5.17331 7.41334 5.21998 7.52001 5.27998 7.64001C5.30665 7.66667 5.31331 7.70667 5.31331 7.74001C5.31331 7.78667 5.28665 7.82667 5.22665 7.87334L4.94665 8.06001C4.90665 8.08667 4.86665 8.10001 4.83331 8.10001C4.78665 8.10001 4.74665 8.07334 4.69998 8.03334C4.63998 7.96667 4.58665 7.90001 4.53998 7.82667C4.49998 7.75334 4.45331 7.66667 4.40665 7.56667C4.05998 7.97334 3.62665 8.18001 3.09998 8.18001C2.72664 8.18001 2.43331 8.07334 2.21331 7.86001C1.99998 7.64667 1.88664 7.36001 1.88664 7.00001C1.88664 6.63334 2.01998 6.33334 2.28664 6.09334C2.55998 5.86667 2.91998 5.74667 3.37331 5.74667C3.52664 5.74667 3.66664 5.76001 3.84664 5.78667C3.99998 5.80667 4.17998 5.84001 4.35331 5.88001V5.56001C4.35331 5.22001 4.28664 5.00001 4.14664 4.84667C3.99998 4.70667 3.76664 4.64667 3.42664 4.64667C3.26664 4.64667 3.10664 4.66667 2.94664 4.70001C2.77998 4.74001 2.61998 4.78667 2.46664 4.85334C2.39331 4.88001 2.33331 4.90001 2.31331 4.90667C2.27998 4.92001 2.25998 4.92001 2.23998 4.92001C2.17998 4.92001 2.14664 4.88001 2.14664 4.78667V4.56667C2.14664 4.50001 2.15331 4.44667 2.17998 4.41334C2.19998 4.38001 2.23998 4.35334 2.29998 4.33334C2.45998 4.24001 2.63998 4.17334 2.85998 4.12001C3.08629 4.06083 3.3194 4.03169 3.55331 4.03334C4.07998 4.03334 4.46665 4.15334 4.71331 4.39334C4.95998 4.63334 5.07998 5.00001 5.07998 5.48667V6.92001H5.09331ZM3.29331 7.60001C3.43998 7.60001 3.58664 7.57334 3.74664 7.52001C3.90664 7.46667 4.04665 7.36667 4.16665 7.23334C4.23998 7.14667 4.29331 7.05334 4.33331 6.94667C4.33331 6.84001 4.36665 6.71334 4.36665 6.56001V6.38001C4.23331 6.33334 4.09998 6.33334 3.95331 6.30001C3.816 6.285 3.67808 6.27611 3.53998 6.27334C3.23998 6.27334 3.02665 6.33334 2.87998 6.45334C2.73331 6.57334 2.66664 6.74001 2.66664 6.96001C2.66664 7.17334 2.71331 7.33334 2.82664 7.43334C2.93331 7.54667 3.08664 7.60001 3.29331 7.60001ZM6.85331 8.07334C6.78877 8.07527 6.72473 8.06154 6.66665 8.03334C6.64665 8.00001 6.61331 7.94001 6.58665 7.86001L5.54664 4.43334C5.51998 4.33334 5.50665 4.28667 5.50665 4.25334C5.50665 4.18001 5.53998 4.14001 5.61331 4.14001H6.04664C6.13331 4.14001 6.19331 4.15334 6.21998 4.18667C6.25998 4.21334 6.28665 4.27334 6.31331 4.36001L7.05331 7.29334L7.74665 4.36001C7.76665 4.27334 7.79331 4.21334 7.83331 4.18667C7.86665 4.16001 7.92665 4.14001 7.99998 4.14001H8.36665C8.44665 4.14001 8.50665 4.15334 8.53998 4.18667C8.57331 4.21334 8.60664 4.27334 8.62664 4.36001L9.33331 7.33334L10.0933 4.36001C10.12 4.27334 10.1533 4.21334 10.18 4.18667C10.22 4.16001 10.2733 4.14001 10.3533 4.14001H10.7666C10.84 4.14001 10.88 4.18001 10.88 4.25334C10.88 4.27334 10.8733 4.30001 10.8666 4.33334C10.8666 4.33334 10.8533 4.38667 10.84 4.43334L9.76665 7.86001C9.73998 7.95334 9.71331 8.00001 9.66665 8.03334C9.63998 8.06001 9.57998 8.08001 9.50665 8.08001H9.12665C9.03998 8.08001 8.99998 8.06667 8.94665 8.03334C8.90182 7.98581 8.87373 7.92495 8.86665 7.86001L8.17998 5.00001L7.49331 7.85334C7.47331 7.94001 7.44665 8.00001 7.41331 8.03334C7.35827 8.06333 7.29588 8.0772 7.23331 8.07334H6.85331ZM12.5533 8.19334C12.3333 8.19334 12.0866 8.16667 11.8666 8.11334C11.6466 8.06001 11.4733 8.00001 11.36 7.94001C11.3021 7.91216 11.2535 7.86817 11.22 7.81334C11.2019 7.77596 11.1927 7.73487 11.1933 7.69334V7.46667C11.1933 7.37334 11.2266 7.33334 11.2933 7.33334H11.3733C11.4 7.33334 11.44 7.36667 11.4866 7.38667C11.6333 7.45334 11.8 7.50667 11.9733 7.54001C12.1533 7.57334 12.3333 7.59334 12.5 7.59334C12.78 7.59334 13 7.54667 13.1466 7.44667C13.3 7.33334 13.38 7.20667 13.38 7.02667C13.38 6.90001 13.3333 6.80001 13.26 6.71334C13.18 6.63334 13.0266 6.55334 12.8133 6.48667L12.1666 6.28667C11.8466 6.18001 11.6066 6.03334 11.46 5.83334C11.3168 5.64821 11.2394 5.42068 11.24 5.18667C11.24 5.00001 11.28 4.84001 11.36 4.70001C11.44 4.55334 11.5466 4.43334 11.6666 4.33334C11.8133 4.23334 11.96 4.16001 12.14 4.10667C12.3133 4.05334 12.5 4.02667 12.7 4.02667C12.7933 4.02667 12.8933 4.03334 13 4.04667C13.0933 4.06001 13.1866 4.08001 13.28 4.09334C13.3733 4.12001 13.4533 4.14001 13.5333 4.16667C13.6133 4.19334 13.6666 4.22001 13.72 4.24667C13.78 4.28001 13.8266 4.31334 13.8533 4.35334C13.88 4.39334 13.8933 4.44001 13.8933 4.50001V4.71334C13.8933 4.80667 13.86 4.85334 13.7933 4.85334C13.76 4.85334 13.7 4.83334 13.62 4.80001C13.3733 4.68667 13.0866 4.62667 12.7733 4.62667C12.52 4.62667 12.3333 4.66667 12.18 4.75334C12.0466 4.83334 11.9733 4.96667 11.9733 5.14667C11.9733 5.27334 12.02 5.38001 12.1066 5.46001C12.1933 5.54667 12.36 5.62667 12.5933 5.70667L13.2266 5.90667C13.5466 6.00001 13.7733 6.14667 13.9133 6.33334C14.0466 6.51334 14.1133 6.72001 14.1133 6.95334C14.1133 7.14001 14.0733 7.31334 14 7.46667C13.92 7.61334 13.8133 7.74667 13.6666 7.85334C13.54 7.96667 13.3733 8.04667 13.1866 8.10667C13 8.16667 12.7733 8.19334 12.5533 8.19334ZM13.3866 10.3533C11.9266 11.4267 9.80665 12 7.99998 12C5.43331 12 3.13331 11.0533 1.39331 9.48667C1.25331 9.36001 1.37998 9.19334 1.54664 9.29334C3.42664 10.38 5.73998 11.04 8.13998 11.04C9.75998 11.04 11.54 10.7067 13.1733 10C13.42 9.90001 13.6266 10.1733 13.3866 10.3533ZM14 9.66667C13.8066 9.42001 12.76 9.54667 12.2866 9.60001C12.1466 9.62001 12.1266 9.49334 12.2533 9.40001C13.0866 8.82001 14.46 9.00001 14.6133 9.18001C14.7733 9.38001 14.5733 10.7533 13.7933 11.4067C13.6666 11.5067 13.5533 11.4533 13.6066 11.3333C13.7866 10.88 14.18 9.89334 14 9.66667Z" fill="#BD5B31"/>
</svg>
