<svg width="16" height="16" viewBox="0 0 16 16" fill="none" xmlns="http://www.w3.org/2000/svg">
<g clip-path="url(#clip0_247_129)">
<path d="M7.10162 15.9483C6.86375 15.9199 6.61425 15.8833 6.54738 15.8668C6.44896 15.8434 6.34997 15.8226 6.2505 15.8043C6.1369 15.7822 6.02419 15.7559 5.91262 15.7251C5.3945 15.5766 5.35738 15.5645 4.96675 15.4048C4.60738 15.2583 3.94525 14.916 3.71875 14.7603C3.65675 14.7173 3.59875 14.6826 3.58987 14.6826C3.581 14.6826 3.43613 14.5806 3.26763 14.456C2.19638 13.6631 1.39213 12.7006 0.811 11.5151C0.711 11.3115 0.629375 11.1309 0.629375 11.1139C0.629375 11.0971 0.611375 11.0508 0.589375 11.0118C0.544 10.9306 0.479375 10.7559 0.42725 10.5753C0.404847 10.4985 0.378775 10.4229 0.349125 10.3486C0.32475 10.2911 0.305125 10.2211 0.305125 10.1929C0.305125 10.1645 0.28075 10.0723 0.251 9.98727C0.22125 9.90289 0.19725 9.80327 0.19725 9.76602C0.19725 9.72902 0.173875 9.60102 0.145 9.48152C0.07475 9.18652 0 8.42239 0 7.99414C0 7.56639 0.07475 6.80227 0.145 6.50739C0.17375 6.38777 0.19725 6.25739 0.19725 6.21739C0.19725 6.17727 0.215375 6.09864 0.23725 6.04239C0.25975 5.98639 0.2885 5.88577 0.30175 5.81889C0.3155 5.75202 0.34675 5.63677 0.372125 5.56202L0.445875 5.34627C0.5 5.18464 0.55025 5.04789 0.57425 4.99464C0.588 4.96489 0.641625 4.84339 0.693875 4.72464C0.778375 4.53277 0.9595 4.17089 1.06537 3.98152C1.104 3.91214 1.11863 3.88914 1.32763 3.56252C1.65875 3.04402 2.22462 2.39889 2.75137 1.93902C2.937 1.77689 3.55713 1.30614 3.585 1.30614C3.59275 1.30614 3.65125 1.27102 3.71537 1.22802C3.88375 1.11527 4.04887 1.01952 4.26412 0.911644C4.34139 0.873433 4.41791 0.833717 4.49363 0.792519C4.52925 0.772019 4.59612 0.741269 4.9395 0.587519C5.01512 0.553769 5.09663 0.523019 5.3315 0.440894C5.38325 0.422894 5.48725 0.384769 5.5615 0.356894C5.63625 0.329144 5.72413 0.306144 5.75688 0.306144C5.78913 0.306144 5.874 0.283644 5.94537 0.255894C6.01662 0.228019 6.146 0.196269 6.23338 0.185519C6.32038 0.175269 6.436 0.150894 6.49025 0.131769C6.544 0.113269 6.6915 0.089269 6.81787 0.078644C6.98258 0.0637367 7.14685 0.0443545 7.3105 0.020519C7.6465 -0.028731 8.377 -0.028731 8.7095 0.020519C8.86655 0.0430569 9.02414 0.0616045 9.18213 0.076144C9.30125 0.086019 9.45313 0.110894 9.52 0.131394C9.58688 0.151394 9.70262 0.176394 9.77687 0.185519C9.85112 0.195394 9.97612 0.226144 10.0546 0.254394C10.1334 0.283144 10.2226 0.306144 10.2534 0.306144C10.2841 0.306144 10.3476 0.323269 10.394 0.344769C10.4409 0.365769 10.54 0.400894 10.6147 0.422894C10.689 0.445394 10.8164 0.489769 10.8985 0.522519C10.98 0.555144 11.0894 0.598144 11.1416 0.617644C11.2379 0.653894 11.9491 1.00977 12.0459 1.07039C12.831 1.56002 13.2349 1.87989 13.7779 2.44089C14.4326 3.11764 14.8672 3.76214 15.3096 4.71089C15.3409 4.77789 15.3886 4.87702 15.416 4.93064C15.4429 4.98489 15.4654 5.04839 15.4654 5.07189C15.4654 5.09564 15.4879 5.16689 15.5156 5.23052C15.5909 5.40339 15.6553 5.60014 15.6856 5.75052C15.7006 5.82427 15.7285 5.91552 15.7475 5.95314C15.7666 5.99064 15.789 6.08602 15.7979 6.16414C15.8066 6.24214 15.8325 6.37014 15.8545 6.44777C15.982 6.88914 16.0454 8.18952 15.9683 8.76464C15.9454 8.93552 15.9195 9.14214 15.9108 9.22364C15.896 9.36327 15.8222 9.72414 15.7592 9.96677L15.6943 10.2236C15.5718 10.7183 15.269 11.4229 14.8994 12.0748C14.7529 12.3335 14.2617 13.0333 14.169 13.1153C14.1606 13.1225 14.1191 13.1715 14.0771 13.2231C14.0351 13.2754 13.9004 13.4214 13.7784 13.5474C13.2407 14.1025 12.8071 14.4458 12.0459 14.9185C11.9556 14.9746 11.19 15.3486 11.0469 15.4068C10.9726 15.4365 10.8486 15.4868 10.7715 15.518C10.6949 15.5489 10.6094 15.5748 10.5825 15.5753C10.5556 15.5756 10.4849 15.5996 10.4253 15.6284C10.3658 15.6571 10.29 15.6811 10.2564 15.6816C10.2231 15.6821 10.126 15.7056 10.0405 15.7339C9.95512 15.7626 9.83637 15.7935 9.77675 15.8026C9.71725 15.812 9.58987 15.8374 9.49312 15.8589C9.3965 15.8804 9.10438 15.9224 8.84475 15.9521C8.2656 16.0198 7.68047 16.0185 7.10162 15.9483ZM7.6895 14.3858C7.727 14.3565 7.76563 14.2983 7.77588 14.2574C7.79838 14.167 11.4301 6.88614 11.4985 6.79489C11.5561 6.71777 11.5615 6.59427 11.5087 6.55077C11.481 6.52739 11.1332 6.52002 10.205 6.52152C9.50875 6.52302 8.92338 6.52352 8.90425 6.52302C8.876 6.52202 8.87013 6.05677 8.873 4.06402C8.875 2.71189 8.86863 1.59327 8.85888 1.57777C8.84913 1.56202 8.811 1.54939 8.77388 1.54939C8.72163 1.54939 8.69725 1.57189 8.66512 1.65039C8.6045 1.79639 8.437 2.12789 7.62162 3.71102C7.45226 4.03956 7.2833 4.36831 7.11475 4.69727C6.97025 4.98002 6.74225 5.42389 6.60887 5.68352C6.24987 6.38142 5.89162 7.07972 5.53412 7.77839C4.9175 8.98289 4.84287 9.12652 4.81637 9.15827C4.76512 9.22027 4.73725 9.36327 4.76613 9.41702C4.79238 9.46627 4.84475 9.46827 6.1465 9.46627C6.89063 9.46539 7.50437 9.46927 7.51075 9.47502C7.52787 9.49264 7.5215 14.1388 7.50387 14.2495C7.49225 14.3223 7.5 14.3608 7.53325 14.394C7.59075 14.4516 7.6065 14.4511 7.6895 14.3858Z" fill="#049688"/>
</g>
<defs>
<clipPath id="clip0_247_129">
<rect width="16" height="16" fill="white"/>
</clipPath>
</defs>
</svg>
