<svg width="16" height="16" viewBox="0 0 16 16" fill="none" xmlns="http://www.w3.org/2000/svg">
<g clip-path="url(#clip0_247_103)">
<path d="M11.8745 15.0025C11.815 15.034 11.82 15.044 11.877 15.015C11.8946 15.0079 11.9107 14.9976 11.9245 14.9845C11.9245 14.974 11.9245 14.974 11.8745 15.0025ZM11.9945 14.9375C11.966 14.961 11.966 14.961 12 14.9455C12.0124 14.9393 12.0238 14.9314 12.034 14.922C12.034 14.9085 12.026 14.9115 11.9945 14.9375ZM12.0725 14.8905C12.044 14.914 12.044 14.914 12.078 14.8985C12.0904 14.8921 12.1018 14.884 12.112 14.8745C12.112 14.862 12.104 14.8645 12.0725 14.8905ZM12.1515 14.844C12.123 14.8675 12.123 14.8675 12.156 14.8515C12.1745 14.8415 12.19 14.831 12.19 14.828C12.19 14.8155 12.182 14.818 12.1515 14.844ZM12.258 14.7735C12.2035 14.81 12.1845 14.8335 12.2345 14.8075C12.268 14.787 12.325 14.742 12.315 14.742C12.2935 14.75 12.2755 14.7635 12.2575 14.7735H12.258ZM7.4765 0.00550607C7.44 0.00800607 7.3305 0.0180061 7.2345 0.0260061C4.9605 0.232006 2.833 1.45601 1.4845 3.34151C0.738794 4.37536 0.254341 5.57431 0.0725 6.83601C0.008 7.27601 0 7.40601 0 8.00251C0 8.59851 0.008 8.72651 0.0725 9.16651C0.508 12.172 2.646 14.695 5.544 15.63C6.0655 15.7965 6.612 15.9115 7.2345 15.982C7.4765 16.008 8.523 16.008 8.765 15.982C9.841 15.862 10.7495 15.5965 11.6485 15.138C11.7865 15.068 11.8125 15.0495 11.794 15.034C11.3554 14.4543 10.9206 13.8718 10.4895 13.2865L9.211 11.56L7.6095 9.18751C7.07679 8.39314 6.53861 7.60245 5.995 6.81551C5.9895 6.81551 5.9825 7.87001 5.9795 9.15601C5.974 11.4085 5.974 11.5 5.9455 11.552C5.91825 11.6149 5.86925 11.6658 5.8075 11.6955C5.758 11.719 5.7135 11.724 5.477 11.724H5.2065L5.136 11.68C5.09192 11.6516 5.05606 11.6121 5.032 11.5655L4.998 11.495L5.0005 8.35951L5.006 5.22401L5.0555 5.16151C5.08753 5.1235 5.12636 5.09179 5.17 5.06801C5.2355 5.03651 5.2615 5.03151 5.532 5.03151C5.8495 5.03151 5.902 5.04401 5.9855 5.13551C6.63426 6.10044 7.27744 7.06913 7.915 8.04151C8.9545 9.61751 10.3735 11.768 11.071 12.823L12.3395 14.7425L12.402 14.701C13.0114 14.2956 13.5638 13.8105 14.0445 13.2585C15.0522 12.105 15.7061 10.6855 15.928 9.17001C15.9925 8.73001 16.0005 8.59951 16.0005 8.00351C16.0005 7.40751 15.9925 7.27951 15.928 6.83951C15.4925 3.83401 13.3545 1.31101 10.4565 0.375506C9.91487 0.204022 9.35742 0.0872714 8.7925 0.0270061C8.641 0.0115061 7.607 -0.00699393 7.477 0.00650607L7.4765 0.00550607ZM10.75 4.84401C10.7872 4.8622 10.8205 4.88769 10.8477 4.91895C10.8749 4.95021 10.8956 4.98661 10.9085 5.02601C10.922 5.06801 10.9245 5.93751 10.922 7.89601L10.9165 10.708L10.422 9.94801L9.9245 9.18751V7.14601C9.9245 5.82251 9.93 5.08051 9.937 5.04401C9.96148 4.96031 10.0176 4.88946 10.0935 4.84651C10.1555 4.81501 10.1795 4.81251 10.427 4.81251C10.6585 4.81251 10.698 4.81501 10.75 4.84401Z" fill="black"/>
</g>
<defs>
<clipPath id="clip0_247_103">
<rect width="16" height="16" fill="white"/>
</clipPath>
</defs>
</svg>
