<svg width="16" height="16" viewBox="0 0 16 16" fill="none" xmlns="http://www.w3.org/2000/svg">
<g clip-path="url(#clip0_247_113)">
<path d="M11.2033 0.666656C10.6166 0.672148 10.0331 0.755087 9.468 0.913323L9.428 0.925323C9.07221 0.864317 8.71227 0.830663 8.35133 0.824656C7.60933 0.81199 6.97133 0.986657 6.458 1.27799C5.95133 1.10732 4.90067 0.813323 3.79333 0.87199C3.022 0.912656 2.18067 1.13999 1.55733 1.77866C0.935332 2.41732 0.606666 3.40532 0.675999 4.74999C0.694666 5.12132 0.803332 5.72599 0.984666 6.50999C1.16467 7.29332 1.41933 8.20999 1.736 9.04666C2.05267 9.88332 2.4 10.636 2.94267 11.1467C3.21333 11.4027 3.586 11.618 4.02533 11.6C4.334 11.588 4.61333 11.4567 4.854 11.2627C4.97133 11.4127 5.09667 11.478 5.21067 11.5387C5.354 11.6147 5.494 11.6667 5.63867 11.7013C6.03928 11.8041 6.45654 11.8247 6.86533 11.762C7.04333 11.7333 7.23067 11.6773 7.41733 11.5973C7.424 11.7987 7.432 11.996 7.44067 12.196C7.466 12.8293 7.48267 13.414 7.67867 13.9267C7.71 14.0107 7.796 14.442 8.13667 14.8227C8.47667 15.204 9.14333 15.4413 9.902 15.284C10.4373 15.1727 11.1187 14.972 11.5707 14.348C12.0173 13.7307 12.2193 12.8453 12.2593 11.4087C12.2693 11.3313 12.2813 11.2653 12.294 11.2033L12.4007 11.2127H12.4127C12.984 11.238 13.604 11.1593 14.122 10.926C14.5807 10.7193 14.9273 10.5113 15.18 10.1413C15.2433 10.05 15.3127 9.93932 15.3313 9.74799C15.35 9.55799 15.238 9.25932 15.0507 9.12199C14.6753 8.84599 14.44 8.95066 14.1873 9.00199C13.9384 9.05532 13.686 9.08488 13.43 9.09066C14.1587 7.90132 14.6807 6.63732 14.9787 5.51866C15.1547 4.85866 15.254 4.24999 15.262 3.71799C15.27 3.18599 15.2253 2.71466 14.8967 2.30666C13.8693 1.03332 12.4247 0.681323 11.3073 0.669323C11.2727 0.668434 11.238 0.668212 11.2033 0.668657V0.666656ZM11.174 1.05799C12.2307 1.04799 13.5813 1.33599 14.5507 2.53799C14.7687 2.80799 14.8333 3.20266 14.826 3.68932C14.818 4.17532 14.7253 4.75666 14.556 5.39399C14.2273 6.62866 13.606 8.06732 12.7307 9.35932C12.7617 9.38086 12.7953 9.39855 12.8307 9.41199C13.0133 9.48532 13.4293 9.54799 14.2607 9.38266C14.4693 9.33932 14.6227 9.31066 14.7813 9.42799C14.8193 9.4595 14.8495 9.49937 14.8695 9.54447C14.8895 9.58957 14.8988 9.63869 14.8967 9.68799C14.8878 9.76245 14.8596 9.83327 14.8147 9.89332C14.6547 10.1273 14.3373 10.3493 13.9307 10.532C13.5713 10.6947 13.0553 10.7793 12.598 10.7847C12.3687 10.7867 12.1573 10.7693 11.978 10.7153L11.966 10.7113C11.8967 11.3587 11.7373 12.638 11.634 13.2213C11.5507 13.692 11.4053 14.066 11.1273 14.346C10.85 14.626 10.458 14.7947 9.93 14.9047C9.276 15.0407 8.79933 14.894 8.492 14.6427C8.18533 14.3927 8.04467 14.06 7.96 13.856C7.902 13.716 7.872 13.534 7.84267 13.2907C7.81041 12.9993 7.78884 12.7069 7.778 12.414C7.75886 11.9004 7.75264 11.3865 7.75933 10.8727C7.486 11.1147 7.146 11.276 6.78133 11.3367C6.348 11.408 5.96 11.338 5.72867 11.282C5.61525 11.254 5.50559 11.2126 5.402 11.1587C5.294 11.1033 5.192 11.0407 5.124 10.9167C5.08393 10.8459 5.07113 10.7629 5.088 10.6833C5.10983 10.6025 5.1582 10.5314 5.22533 10.4813C5.35067 10.3827 5.51533 10.328 5.764 10.2773C6.21733 10.1873 6.37533 10.1253 6.47133 10.0513C6.55333 9.98799 6.646 9.85999 6.81 9.67132L6.808 9.64666C6.51572 9.63808 6.2292 9.56331 5.97 9.42799C5.876 9.52399 5.39333 10.0193 4.80467 10.706C4.55733 10.9933 4.284 11.158 3.99533 11.17C3.70667 11.182 3.446 11.0407 3.22467 10.8327C2.78133 10.4153 2.428 9.69732 2.12 8.88599C1.81333 8.07399 1.56267 7.16999 1.38533 6.39999C1.20667 5.62999 1.10133 5.00932 1.08667 4.70999C1.02 3.43732 1.32667 2.57999 1.85333 2.03932C2.38 1.49866 3.10133 1.29332 3.80533 1.25466C5.068 1.18399 6.26733 1.61132 6.51 1.70332C6.97733 1.39532 7.57933 1.20332 8.332 1.21532C8.68875 1.22028 9.04383 1.26501 9.39067 1.34866L9.40333 1.34332C9.55622 1.29132 9.71133 1.24777 9.86867 1.21266C10.297 1.11598 10.7343 1.06459 11.1733 1.05932L11.174 1.05799ZM11.2693 1.46732H11.178C10.8173 1.47218 10.4579 1.51147 10.1047 1.58466C10.8058 1.89004 11.4219 2.36191 11.8993 2.95932C12.1886 3.31672 12.4285 3.71136 12.6127 4.13266C12.682 4.29399 12.7287 4.43066 12.7547 4.53599C12.768 4.58932 12.7773 4.63399 12.78 4.68066C12.7825 4.71019 12.78 4.73993 12.7727 4.76866L12.7687 4.77666C12.788 5.31199 12.6513 5.67466 12.6347 6.18532C12.622 6.55599 12.7193 6.99132 12.7433 7.46532C12.766 7.91199 12.7107 8.40199 12.412 8.88332C12.4369 8.91266 12.4609 8.94199 12.484 8.97132C13.274 7.76466 13.844 6.42866 14.1473 5.29066C14.3093 4.67732 14.396 4.12199 14.4033 3.68199C14.41 3.24199 14.3253 2.92266 14.2173 2.78999C13.372 1.74132 12.2287 1.47466 11.2693 1.46732ZM8.25267 1.62332C7.508 1.62466 6.97333 1.84332 6.56867 2.16999C6.15067 2.50799 5.87067 2.96999 5.68667 3.44399C5.50857 3.91768 5.39967 4.41457 5.36333 4.91932L5.372 4.91466C5.59667 4.79199 5.892 4.66999 6.208 4.59932C6.52467 4.52866 6.86533 4.50666 7.174 4.62266C7.48267 4.73866 7.738 5.01199 7.83067 5.42666C8.274 7.41732 7.69267 8.15732 7.478 8.71532C7.39747 8.91784 7.32803 9.12459 7.27 9.33466C7.29667 9.3271 7.32355 9.32177 7.35067 9.31866C7.46778 9.31232 7.58462 9.33523 7.69067 9.38532C7.90667 9.47199 8.05467 9.65332 8.13467 9.86132C8.15555 9.91643 8.17044 9.97421 8.17933 10.0347C8.18822 10.06 8.19244 10.086 8.192 10.1127C8.16804 10.8738 8.17071 11.6356 8.2 12.3967C8.21467 12.726 8.236 13.0153 8.26333 13.244C8.29 13.472 8.32867 13.6453 8.35333 13.704C8.43333 13.9 8.55133 14.156 8.76467 14.33C8.978 14.504 9.28267 14.6193 9.84067 14.5033C10.3247 14.4027 10.6233 14.2633 10.8233 14.0613C11.022 13.8607 11.1413 13.5813 11.2173 13.1527C11.3313 12.5107 11.5607 10.65 11.588 10.2993C11.576 10.036 11.616 9.83266 11.7027 9.67799C11.7927 9.51932 11.9313 9.42199 12.0507 9.36932C12.1107 9.34266 12.1667 9.32532 12.2127 9.31266C12.1636 9.24485 12.1125 9.17859 12.0593 9.11399C11.8869 8.91232 11.7456 8.68605 11.64 8.44266C11.5891 8.34253 11.5351 8.24404 11.478 8.14732C11.3947 8.00066 11.2887 7.81732 11.178 7.61132C10.956 7.19866 10.7147 6.69866 10.5893 6.21132C10.4647 5.72532 10.446 5.22199 10.766 4.86666C11.05 4.55132 11.5473 4.42066 12.2947 4.49399C12.2727 4.42999 12.2593 4.37666 12.222 4.29132C12.0534 3.90398 11.8329 3.54134 11.5667 3.21332C10.9333 2.42799 9.90867 1.64932 8.32467 1.62399H8.25267V1.62332ZM4.06867 1.65466C3.98867 1.65466 3.90867 1.65688 3.82867 1.66132C3.19267 1.69666 2.59133 1.87599 2.16133 2.31866C1.73 2.76066 1.44667 3.48599 1.508 4.68732C1.52067 4.91399 1.62267 5.55132 1.79733 6.30732C1.972 7.06466 2.22 7.95466 2.51733 8.74066C2.81467 9.52732 3.176 10.212 3.51867 10.536C3.69133 10.698 3.84133 10.7633 3.97733 10.758C4.114 10.7513 4.278 10.6753 4.47933 10.4413C4.84599 10.0123 5.22619 9.59493 5.61933 9.18999C5.34155 8.95705 5.12771 8.65717 4.998 8.31866C4.86934 7.98336 4.83028 7.62032 4.88467 7.26532C4.94933 6.81332 4.958 6.39066 4.95067 6.05732C4.94267 5.73199 4.91867 5.51599 4.91867 5.38066V5.36199C4.91798 4.65741 5.04422 3.95848 5.29133 3.29866C5.46733 2.84399 5.73 2.38199 6.124 2.00799C5.73733 1.88466 5.05067 1.69666 4.30733 1.66132C4.2274 1.65704 4.14738 1.65482 4.06733 1.65466H4.06867ZM11.878 4.88266C11.4507 4.88799 11.2107 4.99532 11.0847 5.13532C10.906 5.33399 10.8893 5.68199 11 6.11132C11.1107 6.54066 11.338 7.02132 11.5527 7.41999C11.6593 7.61999 11.7633 7.79999 11.8473 7.94532C11.932 8.09199 11.994 8.19599 12.0313 8.28532C12.0669 8.36577 12.1042 8.43932 12.1433 8.50599C12.3087 8.16666 12.3387 7.83399 12.3213 7.48666C12.2993 7.05732 12.1967 6.61799 12.212 6.17332C12.2287 5.65332 12.3347 5.31399 12.344 4.91199C12.1894 4.89315 12.0338 4.88335 11.878 4.88266ZM6.69133 4.95266C6.56074 4.95365 6.43064 4.96885 6.30333 4.99799C6.05023 5.05766 5.80596 5.14999 5.57667 5.27266C5.49978 5.31266 5.42644 5.3591 5.35667 5.41199L5.34333 5.42399C5.34733 5.51332 5.36533 5.72999 5.37333 6.04799C5.38 6.39666 5.372 6.84132 5.30267 7.32132C5.152 8.36666 5.93333 9.23199 6.852 9.23332C6.90533 9.01866 6.994 8.80132 7.082 8.57199C7.338 7.90332 7.84133 7.41599 7.41733 5.51266C7.348 5.20132 7.21067 5.07532 7.02133 5.00399C6.91531 4.96718 6.80352 4.94979 6.69133 4.95266ZM11.678 5.07732H11.71C11.7518 5.07866 11.7896 5.0831 11.8233 5.09066C11.854 5.09682 11.8833 5.10833 11.91 5.12466C11.9221 5.13181 11.9326 5.14144 11.9408 5.15293C11.9489 5.16442 11.9546 5.1775 11.9573 5.19132V5.19666C11.9591 5.22596 11.9511 5.25501 11.9347 5.27932C11.9161 5.31294 11.8927 5.3437 11.8653 5.37066C11.8007 5.43921 11.7155 5.48485 11.6227 5.50066C11.5316 5.51144 11.4398 5.48894 11.364 5.43732C11.3335 5.41718 11.3059 5.39296 11.282 5.36532C11.2618 5.34374 11.2479 5.31697 11.242 5.28799C11.2405 5.27373 11.2422 5.25933 11.2468 5.24576C11.2514 5.23218 11.2588 5.21976 11.2687 5.20932C11.29 5.18695 11.315 5.16845 11.3427 5.15466C11.4483 5.10618 11.5625 5.07942 11.6787 5.07599L11.678 5.07732ZM6.75267 5.17999C6.786 5.17999 6.82089 5.18266 6.85733 5.18799C6.95333 5.20132 7.03933 5.22599 7.10467 5.26266C7.13667 5.2791 7.16467 5.30066 7.18867 5.32732C7.20111 5.34199 7.21044 5.35821 7.21667 5.37599C7.22289 5.39377 7.22489 5.41221 7.22267 5.43132C7.2166 5.46667 7.20012 5.4994 7.17533 5.52532C7.14954 5.55638 7.1192 5.58335 7.08533 5.60532C7.00254 5.66171 6.9021 5.68611 6.80267 5.67399C6.70178 5.6577 6.60904 5.60875 6.53867 5.53466C6.50941 5.50482 6.4843 5.47118 6.464 5.43466C6.44324 5.40269 6.43406 5.36457 6.438 5.32666C6.44733 5.25999 6.504 5.22666 6.558 5.20666C6.62042 5.18685 6.68596 5.17872 6.75133 5.18266L6.75267 5.17999ZM12.4593 9.66799H12.4573C12.3647 9.70132 12.2887 9.71466 12.224 9.74132C12.1596 9.76521 12.1062 9.81196 12.074 9.87266C12.034 9.94266 12.0007 10.0673 12.0107 10.2793C12.0394 10.2983 12.0709 10.3127 12.104 10.322C12.2113 10.354 12.392 10.3753 12.594 10.372C12.9953 10.3673 13.49 10.2767 13.7527 10.158C13.968 10.0607 14.168 9.93399 14.3467 9.78199C13.4687 9.95799 12.9733 9.91132 12.6687 9.78932C12.5935 9.75866 12.5231 9.71826 12.4593 9.66799ZM7.40067 9.72466H7.38733C7.354 9.72732 7.30533 9.73799 7.212 9.83932C6.992 10.078 6.916 10.2273 6.73467 10.3673C6.55467 10.5073 6.31933 10.5813 5.85 10.6747C5.70133 10.704 5.61667 10.7367 5.55933 10.7627C5.578 10.7773 5.576 10.7813 5.60333 10.7953C5.672 10.832 5.76067 10.864 5.83133 10.882C6.03333 10.9307 6.36467 10.988 6.71067 10.9307C7.05667 10.8733 7.416 10.7127 7.72267 10.2953C7.776 10.2233 7.78133 10.1167 7.738 10.002C7.69333 9.88866 7.59733 9.78999 7.52933 9.76199C7.48876 9.74286 7.44527 9.73069 7.40067 9.72599V9.72466Z" fill="#4169CF"/>
</g>
<defs>
<clipPath id="clip0_247_113">
<rect width="16" height="16" fill="white"/>
</clipPath>
</defs>
</svg>
