<svg width="16" height="16" viewBox="0 0 16 16" fill="none" xmlns="http://www.w3.org/2000/svg">
<path d="M6.57331 1.33334C6.06763 1.33334 5.58267 1.53422 5.2251 1.89179C4.86753 2.24936 4.66665 2.73433 4.66665 3.24001V4.36001H7.52665C7.78665 4.36001 7.99998 4.74001 7.99998 5.00001H3.23998C2.7343 5.00001 2.24933 5.20089 1.89176 5.55846C1.53419 5.91603 1.33331 6.401 1.33331 6.90668V9.42734C1.33331 9.93302 1.53419 10.418 1.89176 10.7756C2.24933 11.1331 2.7343 11.334 3.23998 11.334H4.02665V9.54734C4.02577 9.29727 4.07427 9.04949 4.16936 8.8182C4.26445 8.58691 4.40426 8.37667 4.58078 8.19953C4.7573 8.02239 4.96705 7.88184 5.198 7.78594C5.42896 7.69004 5.67657 7.64068 5.92665 7.64068H9.42665C10.48 7.64068 11.3333 6.79334 11.3333 5.74001V3.24001C11.3333 2.73433 11.1324 2.24936 10.7749 1.89179C10.4173 1.53422 9.93233 1.33334 9.42665 1.33334H6.57331ZM6.09331 2.40668C6.35998 2.40668 6.57331 2.48668 6.57331 2.88001C6.57331 3.27334 6.35998 3.47401 6.09331 3.47401C5.83331 3.47401 5.61998 3.27401 5.61998 2.88068C5.61998 2.48734 5.83331 2.40668 6.09331 2.40668Z" fill="#0288D1"/>
<path d="M11.9727 4.66666V6.45332C11.9735 6.70334 11.9249 6.95105 11.8298 7.18226C11.7347 7.41348 11.5948 7.62364 11.4183 7.80071C11.2418 7.97777 11.0321 8.11826 10.8012 8.21412C10.5703 8.30998 10.3227 8.35932 10.0727 8.35932H6.57335C6.32328 8.35845 6.0755 8.40694 5.84421 8.50203C5.61292 8.59712 5.40268 8.73694 5.22554 8.91346C5.0484 9.08998 4.90785 9.29973 4.81195 9.53068C4.71605 9.76164 4.66669 10.0092 4.66669 10.2593V12.7593C4.66669 13.265 4.86757 13.75 5.22514 14.1075C5.58271 14.4651 6.06767 14.666 6.57335 14.666H9.42669C9.93225 14.666 10.4171 14.4652 10.7747 14.1078C11.1322 13.7503 11.3332 13.2656 11.3334 12.76V11.64H8.47269C8.21269 11.64 8.00002 11.26 8.00002 11H12.76C13.2657 11 13.7507 10.7991 14.1082 10.4415C14.4658 10.084 14.6667 9.599 14.6667 9.09332V6.57332C14.6667 6.06764 14.4658 5.58268 14.1082 5.22511C13.7507 4.86754 13.2657 4.66666 12.76 4.66666H11.9727ZM5.54669 7.67532L5.54402 7.67799L5.56935 7.67532H5.54669ZM9.90669 12.526C10.1667 12.526 10.38 12.726 10.38 13.1193C10.38 13.1815 10.3678 13.243 10.344 13.3005C10.3202 13.3579 10.2853 13.4101 10.2414 13.454C10.1974 13.498 10.1453 13.5328 10.0878 13.5566C10.0304 13.5804 9.96885 13.5927 9.90669 13.5927C9.64002 13.5927 9.42669 13.5127 9.42669 13.1193C9.42669 12.726 9.64002 12.526 9.90669 12.526Z" fill="#FDD835"/>
</svg>
