<svg width="16" height="16" viewBox="0 0 16 16" fill="none" xmlns="http://www.w3.org/2000/svg">
<path d="M7.99998 6.74001C8.68665 6.74001 9.24665 7.30001 9.24665 8.00001C9.24665 8.66668 8.68665 9.23334 7.99998 9.23334C7.31331 9.23334 6.75331 8.66668 6.75331 8.00001C6.75331 7.30001 7.31331 6.74001 7.99998 6.74001ZM4.91331 13.3333C5.33331 13.5867 6.25331 13.2 7.31331 12.2C6.96665 11.8067 6.62665 11.38 6.30665 10.9333C5.76946 10.8816 5.23538 10.8014 4.70665 10.6933C4.36665 12.12 4.49331 13.1 4.91331 13.3333ZM5.38665 9.50668L5.19331 9.16668C5.11998 9.36001 5.04665 9.55334 4.99998 9.74001C5.17998 9.78001 5.37998 9.81334 5.58665 9.84668L5.38665 9.50668ZM9.74665 9.00001L10.2866 8.00001L9.74665 7.00001C9.54665 6.64668 9.33331 6.33334 9.13998 6.02001C8.77998 6.00001 8.39998 6.00001 7.99998 6.00001C7.59998 6.00001 7.21998 6.00001 6.85998 6.02001C6.66665 6.33334 6.45331 6.64668 6.25331 7.00001L5.71331 8.00001L6.25331 9.00001C6.45331 9.35334 6.66665 9.66668 6.85998 9.98001C7.21998 10 7.59998 10 7.99998 10C8.39998 10 8.77998 10 9.13998 9.98001C9.33331 9.66668 9.54665 9.35334 9.74665 9.00001ZM7.99998 4.52001C7.87331 4.66668 7.73998 4.82001 7.60665 5.00001H8.39331C8.25998 4.82001 8.12665 4.66668 7.99998 4.52001ZM7.99998 11.48C8.12665 11.3333 8.25998 11.18 8.39331 11H7.60665C7.73998 11.18 7.87331 11.3333 7.99998 11.48ZM11.08 2.66668C10.6666 2.41334 9.74665 2.80001 8.68665 3.80001C9.03331 4.19334 9.37331 4.62001 9.69331 5.06668C10.24 5.12001 10.78 5.20001 11.2933 5.30668C11.6333 3.88001 11.5066 2.90001 11.08 2.66668ZM10.6133 6.49334L10.8066 6.83334C10.88 6.64001 10.9533 6.44668 11 6.26001C10.82 6.22001 10.62 6.18668 10.4133 6.15334L10.6133 6.49334ZM11.58 1.79334C12.56 2.35334 12.6666 3.82668 12.2533 5.54668C13.9466 6.04668 15.1666 6.87334 15.1666 8.00001C15.1666 9.12668 13.9466 9.95334 12.2533 10.4533C12.6666 12.1733 12.56 13.6467 11.58 14.2067C10.6066 14.7667 9.27998 14.1267 7.99998 12.9067C6.71998 14.1267 5.39331 14.7667 4.41331 14.2067C3.43998 13.6467 3.33331 12.1733 3.74665 10.4533C2.05331 9.95334 0.833313 9.12668 0.833313 8.00001C0.833313 6.87334 2.05331 6.04668 3.74665 5.54668C3.33331 3.82668 3.43998 2.35334 4.41331 1.79334C5.39331 1.23334 6.71998 1.87334 7.99998 3.09334C9.27998 1.87334 10.6066 1.23334 11.58 1.79334ZM11.3866 8.00001C11.6133 8.50001 11.8133 9.00001 11.98 9.50668C13.38 9.08668 14.1666 8.48668 14.1666 8.00001C14.1666 7.51334 13.38 6.91334 11.98 6.49334C11.8133 7.00001 11.6133 7.50001 11.3866 8.00001ZM4.61331 8.00001C4.38665 7.50001 4.18665 7.00001 4.01998 6.49334C2.61998 6.91334 1.83331 7.51334 1.83331 8.00001C1.83331 8.48668 2.61998 9.08668 4.01998 9.50668C4.18665 9.00001 4.38665 8.50001 4.61331 8.00001ZM10.6133 9.50668L10.4133 9.84668C10.62 9.81334 10.82 9.78001 11 9.74001C10.9533 9.55334 10.88 9.36001 10.8066 9.16668L10.6133 9.50668ZM8.68665 12.2C9.74665 13.2 10.6666 13.5867 11.08 13.3333C11.5066 13.1 11.6333 12.12 11.2933 10.6933C10.78 10.8 10.24 10.88 9.69331 10.9333C9.37331 11.38 9.03331 11.8067 8.68665 12.2ZM5.38665 6.49334L5.58665 6.15334C5.37998 6.18668 5.17998 6.22001 4.99998 6.26001C5.04665 6.44668 5.11998 6.64001 5.19331 6.83334L5.38665 6.49334ZM7.31331 3.80001C6.25331 2.80001 5.33331 2.41334 4.91331 2.66668C4.49331 2.90001 4.36665 3.88001 4.70665 5.30668C5.23538 5.19857 5.76946 5.11846 6.30665 5.06668C6.62665 4.62001 6.96665 4.19334 7.31331 3.80001Z" fill="#4FBAF4"/>
</svg>
