<svg width="16" height="16" viewBox="0 0 16 16" fill="none" xmlns="http://www.w3.org/2000/svg">
<path d="M15 6L13 5V3H11L10 1L8 2L6 1L5 3H3V5L1 6L2 8L1 10L3 11V13H5L6 15L8 14L10 15L11 13H13V11L15 10L14 8L15 6ZM3 8C2.99968 7.31131 3.14306 6.63012 3.421 6H5V10H3.421C3.14306 9.36988 2.99968 8.68869 3 8ZM8 13C7.2255 12.9991 6.46184 12.8179 5.76948 12.4707C5.07713 12.1236 4.47508 11.6201 4.011 11H8V10H7V9H9C9.4095 9.4095 9.1485 10.154 9.5895 10.685C9.68099 10.7874 9.79369 10.8686 9.91976 10.923C10.0458 10.9774 10.1822 11.0037 10.3195 11H11.9895C11.5254 11.6201 10.9232 12.1237 10.2308 12.4708C9.53834 12.818 8.77459 12.9991 8 13ZM7 7V6H9C9.13261 6 9.25979 6.05268 9.35355 6.14645C9.44732 6.24021 9.5 6.36739 9.5 6.5C9.5 6.63261 9.44732 6.75979 9.35355 6.85355C9.25979 6.94732 9.13261 7 9 7H7ZM12.579 10H12C11.735 9.99921 11.4811 9.8936 11.2938 9.70623C11.1064 9.51887 11.0008 9.26497 11 9C11 8.73478 10.8946 8.48043 10.7071 8.29289C10.5196 8.10536 10.2652 8 10 8C10.3978 8 10.7794 7.84196 11.0607 7.56066C11.342 7.27936 11.5 6.89782 11.5 6.5C11.5 6.47333 11.4993 6.4465 11.498 6.4195C11.4631 6.02635 11.2803 5.66111 10.9864 5.39761C10.6925 5.1341 10.3096 4.99199 9.915 5H4.011C4.74569 4.01959 5.81521 3.34351 7.016 3.10044C8.21679 2.85738 9.46504 3.06428 10.5232 3.68178C11.5813 4.29928 12.3755 5.28427 12.7546 6.4493C13.1337 7.61432 13.0712 8.87806 12.579 10Z" fill="#FF7043"/>
</svg>
