<svg width="158" height="158" viewBox="0 0 158 158" fill="none" xmlns="http://www.w3.org/2000/svg">
<path d="M90.4696 20.7544L104.929 7.76112L107.653 27.0088L107.922 28.9059L109.699 28.1899L127.73 20.9255L123.707 39.9443L123.311 41.8188L125.226 41.7538L144.654 41.0946L134.369 57.5904L133.355 59.2163L135.177 59.8102L153.659 65.8356L138.352 77.8189L136.844 79L138.352 80.1811L153.659 92.1644L135.177 98.1898L133.355 98.7837L134.369 100.41L144.654 116.905L125.226 116.246L123.311 116.181L123.707 118.056L127.73 137.074L109.699 129.81L107.922 129.094L107.653 130.991L104.929 150.239L90.4696 137.246L89.0444 135.965L88.1433 137.656L79 154.811L69.8567 137.656L68.9556 135.965L67.5304 137.246L53.0712 150.239L50.3467 130.991L50.0782 129.094L48.301 129.81L30.2697 137.074L34.2927 118.056L34.6892 116.181L32.7743 116.246L13.3459 116.905L23.631 100.41L24.6447 98.7837L22.8231 98.1898L4.3409 92.1644L19.6477 80.1811L21.1563 79L19.6477 77.8189L4.3409 65.8356L22.8231 59.8102L24.6447 59.2163L23.631 57.5904L13.3459 41.0946L32.7743 41.7538L34.6892 41.8188L34.2927 39.9443L30.2697 20.9255L48.301 28.1899L50.0782 28.9059L50.3467 27.0088L53.0712 7.76111L67.5304 20.7544L68.9556 22.0351L69.8567 20.3443L79 3.18916L88.1433 20.3443L89.0444 22.0351L90.4696 20.7544Z" fill="#439059" stroke="#EBFFF0" stroke-width="3"/>
<rect x="103.12" y="50.44" width="8.28" height="56.12" fill="#B7DACC"/>
<rect x="111.4" y="55.96" width="4.6" height="45.08" fill="#A1CAB9"/>
<rect x="50.22" y="53.66" width="49.68" height="49.68" stroke="#EBFFF0" stroke-width="6.44"/>
<path d="M67.6876 80.8497L68.0193 80.9465C73.4488 82.5301 79.2222 82.4965 84.633 80.8497V80.8497" stroke="#EBFFF0" stroke-width="2.16324"/>
<circle cx="64.8033" cy="76.5232" r="2.16324" fill="#EBFFF0"/>
<circle cx="87.1567" cy="76.5232" r="2.16324" fill="#EBFFF0"/>
</svg>
