<svg width="25" height="25" viewBox="0 0 25 25" fill="none" xmlns="http://www.w3.org/2000/svg">
<path d="M22.5391 5.99609L13.1055 0.566406C12.9492 0.46875 12.7344 0.429688 12.5 0.429688C12.2656 0.429688 12.0508 0.488281 11.8945 0.566406L2.51953 6.01562C2.1875 6.21094 1.95312 6.69922 1.95312 7.07031V17.9492C1.95312 18.1641 1.99219 18.418 2.14844 18.6328L23.0078 6.52344C22.8906 6.28906 22.7148 6.11328 22.5391 5.99609Z" fill="#9B4F96"/>
<path d="M2.08984 18.6133C2.1875 18.7695 2.32422 18.9062 2.46094 18.9844L11.875 24.4336C12.0312 24.5312 12.2461 24.5703 12.4805 24.5703C12.7148 24.5703 12.9297 24.5117 13.0859 24.4336L22.4609 18.9844C22.793 18.7891 23.0273 18.3008 23.0273 17.9297V7.05078C23.0273 6.875 23.0078 6.67969 22.9102 6.50391L2.08984 18.6133Z" fill="#68217A"/>
<path d="M16.6602 14.8633C15.8398 16.3086 14.2773 17.2852 12.5 17.2852C9.86328 17.2852 7.71484 15.1367 7.71484 12.5C7.71484 9.86328 9.86328 7.71484 12.5 7.71484C14.2773 7.71484 15.8398 8.69141 16.6602 10.1562L19.1992 8.69141C17.8711 6.36719 15.3711 4.78516 12.5 4.78516C8.24219 4.78516 4.78516 8.24219 4.78516 12.5C4.78516 16.7578 8.24219 20.2148 12.5 20.2148C15.3516 20.2148 17.8516 18.6523 19.1797 16.3477L16.6602 14.8633ZM18.9453 12.9297L19.1211 12.0898H18.3008V11.1719H19.2969L19.5312 9.96094H20.4883L20.2539 11.1523H20.9961L21.2305 9.96094H22.168L21.9336 11.1523H22.4023V12.0703H21.7578L21.582 12.9102H22.4023V13.8281H21.4062L21.1719 15H20.2148L20.4492 13.8281H19.707L19.4727 15H18.5352L18.7695 13.8281H18.3008V12.9102H18.9453V12.9297ZM19.8828 12.9297H20.625L20.8008 12.0898H20.0586L19.8828 12.9297Z" fill="white"/>
</svg>
