<svg width="25" height="25" viewBox="0 0 25 25" fill="none" xmlns="http://www.w3.org/2000/svg">
<g clip-path="url(#clip0_1308_30)">
<path d="M22.2656 0H2.73438C1.22422 0 0 1.22422 0 2.73438V22.2656C0 23.7758 1.22422 25 2.73438 25H22.2656C23.7758 25 25 23.7758 25 22.2656V2.73438C25 1.22422 23.7758 0 22.2656 0Z" fill="#092E20"/>
<path d="M18.2009 9.19897V15.6664C18.2009 17.8949 18.0378 18.9636 17.5487 19.8875C17.0957 20.7754 16.4978 21.337 15.266 21.953L12.6752 20.721C13.9072 20.1414 14.5051 19.6341 14.8854 18.8548C15.2841 18.0579 15.411 17.1338 15.411 14.7063V9.19897H18.2009ZM13.7625 4.89038V17.8043C12.3313 18.076 11.2805 18.1847 10.1392 18.1847C6.73328 18.1847 4.95789 16.645 4.95789 13.6918C4.95789 10.8475 6.84207 8.99976 9.75867 8.99976C10.2116 8.99976 10.5558 9.03589 10.9725 9.14458V4.89058L13.7625 4.89038ZM10.0305 11.246C8.61746 11.246 7.80212 12.1157 7.80212 13.6374C7.80212 15.1231 8.58123 15.9382 10.0125 15.9382C10.3203 15.9382 10.574 15.9202 10.9725 15.866V11.3909C10.6465 11.2823 10.3748 11.246 10.0305 11.246ZM18.2009 4.90522V7.76772H15.411V4.90532L18.2009 4.90522Z" fill="#FFFFFD"/>
</g>
<defs>
<clipPath id="clip0_1308_30">
<rect width="25" height="25" fill="white"/>
</clipPath>
</defs>
</svg>
