<svg width="17" height="25" viewBox="0 0 17 25" fill="none" xmlns="http://www.w3.org/2000/svg">
<g clip-path="url(#clip0_1308_35)">
<path d="M4.16667 25.0001C6.46667 25.0001 8.33333 23.1334 8.33333 20.8334V16.6667H4.16667C1.86667 16.6667 0 18.5334 0 20.8334C0 23.1334 1.86667 25.0001 4.16667 25.0001Z" fill="#0ACF83"/>
<path d="M0 12.4999C0 10.1999 1.86667 8.33325 4.16667 8.33325H8.33333V16.6666H4.16667C1.86667 16.6666 0 14.7999 0 12.4999Z" fill="#A259FF"/>
<path d="M0 4.16667C0 1.86667 1.86667 0 4.16667 0H8.33333V8.33333H4.16667C1.86667 8.33333 0 6.46667 0 4.16667Z" fill="#F24E1E"/>
<path d="M8.33337 0H12.5C14.8 0 16.6667 1.86667 16.6667 4.16667C16.6667 6.46667 14.8 8.33333 12.5 8.33333H8.33337V0Z" fill="#FF7262"/>
<path d="M16.6667 12.4999C16.6667 14.7999 14.8 16.6666 12.5 16.6666C10.2 16.6666 8.33337 14.7999 8.33337 12.4999C8.33337 10.1999 10.2 8.33325 12.5 8.33325C14.8 8.33325 16.6667 10.1999 16.6667 12.4999Z" fill="#1ABCFE"/>
</g>
<defs>
<clipPath id="clip0_1308_35">
<rect width="16.6667" height="25" fill="white"/>
</clipPath>
</defs>
</svg>
