<svg width="25" height="25" viewBox="0 0 25 25" fill="none" xmlns="http://www.w3.org/2000/svg">
<g clip-path="url(#clip0_1308_14)">
<path d="M18.5539 23.4415C18.4609 23.4907 18.4688 23.5063 18.5578 23.461C18.5853 23.4498 18.6104 23.4337 18.632 23.4134C18.632 23.397 18.632 23.397 18.5539 23.4415ZM18.7414 23.3399C18.6969 23.3766 18.6969 23.3766 18.75 23.3524C18.7696 23.3432 18.7876 23.3308 18.8031 23.3157C18.8031 23.2946 18.7906 23.2993 18.7414 23.3399ZM18.8633 23.2665C18.8188 23.3032 18.8188 23.3032 18.8719 23.279C18.8916 23.2696 18.9096 23.2569 18.925 23.2415C18.925 23.222 18.9125 23.2259 18.8633 23.2665ZM18.9867 23.1938C18.9422 23.2305 18.9422 23.2305 18.9937 23.2055C19.0227 23.1899 19.0469 23.1735 19.0469 23.1688C19.0469 23.1493 19.0344 23.1532 18.9867 23.1938ZM19.1531 23.0837C19.068 23.1407 19.0383 23.1774 19.1164 23.1368C19.1688 23.1048 19.2578 23.0345 19.2422 23.0345C19.2086 23.047 19.1805 23.068 19.1523 23.0837H19.1531ZM11.682 0.0086719C11.625 0.0125781 11.4539 0.0282031 11.3039 0.0407031C7.75078 0.362578 4.42656 2.27508 2.31953 5.22117C1.15513 6.83699 0.398249 8.71016 0.113281 10.6813C0.0125 11.3688 0 11.572 0 12.504C0 13.4352 0.0125 13.6352 0.113281 14.3227C0.79375 19.0188 4.13438 22.961 8.6625 24.422C9.47734 24.6821 10.3313 24.8618 11.3039 24.972C11.682 25.0126 13.3172 25.0126 13.6953 24.972C15.3766 24.7845 16.7961 24.3696 18.2008 23.6532C18.4164 23.5438 18.457 23.5149 18.4281 23.4907C17.7429 22.5849 17.0634 21.6747 16.3898 20.7602L14.3922 18.0626L11.8898 14.3555C11.0575 13.1144 10.2166 11.8789 9.36719 10.6493C9.35859 10.6493 9.34766 12.297 9.34297 14.3063C9.33437 17.8259 9.33437 17.9688 9.28984 18.0501C9.24714 18.1482 9.17063 18.2278 9.07422 18.2743C8.99687 18.311 8.92734 18.3188 8.55781 18.3188H8.13516L8.025 18.2501C7.95601 18.2058 7.89994 18.1441 7.8625 18.0712L7.80938 17.961L7.81328 13.0618L7.82188 8.16258L7.89922 8.06492C7.94861 8.00488 8.00942 7.95522 8.07812 7.91883C8.18047 7.86961 8.22109 7.8618 8.64375 7.8618C9.13984 7.8618 9.22188 7.88133 9.35234 8.0243C10.366 9.53201 11.371 11.0456 12.3672 12.5649C13.9914 15.0274 16.2086 18.3876 17.2984 20.036L19.2805 23.0352L19.3781 22.9704C20.3307 22.3374 21.1938 21.5793 21.9445 20.7165C23.5192 18.9142 24.541 16.6962 24.8875 14.3282C24.9883 13.6407 25.0008 13.4368 25.0008 12.5055C25.0008 11.5735 24.9883 11.3743 24.8875 10.6868C24.207 5.9907 20.8664 2.04852 16.3383 0.586797C15.492 0.318766 14.621 0.136342 13.7383 0.0422656C13.5016 0.0180469 11.8859 -0.0108594 11.6828 0.0102344L11.682 0.0086719ZM16.7969 7.56883C16.855 7.59737 16.9068 7.63723 16.9494 7.68606C16.9919 7.73489 17.0242 7.79171 17.0445 7.8532C17.0656 7.91883 17.0695 9.27742 17.0656 12.3376L17.057 16.7313L16.2844 15.5438L15.507 14.3555V11.1657C15.507 9.09773 15.5156 7.93836 15.5266 7.88133C15.5648 7.75056 15.6525 7.63985 15.7711 7.57273C15.868 7.52352 15.9055 7.51961 16.2922 7.51961C16.6539 7.51961 16.7156 7.52352 16.7969 7.56883Z" fill="white"/>
</g>
<defs>
<clipPath id="clip0_1308_14">
<rect width="25" height="25" fill="white"/>
</clipPath>
</defs>
</svg>
