<svg width="25" height="25" viewBox="0 0 25 25" fill="none" xmlns="http://www.w3.org/2000/svg">
<path d="M12.5 23.4374C12.2049 23.4376 11.915 23.3599 11.6594 23.2124L8.98438 21.6288C8.58516 21.4054 8.77969 21.3265 8.91172 21.2804C9.33631 21.1492 9.74285 20.9655 10.1219 20.7335C10.1536 20.7189 10.1886 20.7125 10.2234 20.7151C10.2583 20.7177 10.2919 20.7292 10.3211 20.7484L12.3766 21.9695C12.4148 21.9897 12.4575 22.0003 12.5008 22.0003C12.5441 22.0003 12.5867 21.9897 12.625 21.9695L20.6406 17.3429C20.6781 17.3204 20.7092 17.2886 20.7307 17.2505C20.7522 17.2125 20.7634 17.1694 20.7633 17.1257V7.87103C20.7633 7.82662 20.7519 7.78294 20.7301 7.74421C20.7084 7.70549 20.677 7.67302 20.6391 7.64994L12.6234 3.02728C12.5856 3.006 12.543 2.99481 12.4996 2.99481C12.4562 2.99481 12.4136 3.006 12.3758 3.02728L4.36485 7.6515C4.32664 7.6741 4.29491 7.70618 4.27274 7.74465C4.25056 7.78311 4.2387 7.82664 4.23829 7.87103V17.1218C4.2384 17.1654 4.2501 17.2083 4.2722 17.2459C4.29431 17.2835 4.32601 17.3145 4.36407 17.3359L6.56251 18.6046C7.75391 19.1999 8.4836 18.4984 8.4836 17.7937V8.6601C8.4836 8.59794 8.50829 8.53832 8.55225 8.49437C8.5962 8.45041 8.65581 8.42572 8.71797 8.42572H9.7336C9.79576 8.42572 9.85537 8.45041 9.89933 8.49437C9.94328 8.53832 9.96797 8.59794 9.96797 8.6601V17.7945C9.96797 19.3843 9.10235 20.2945 7.59454 20.2945C6.94405 20.3058 6.30376 20.1318 5.74844 19.7929L3.64141 18.5843C3.38562 18.4354 3.17338 18.2219 3.02587 17.9653C2.87836 17.7086 2.80075 17.4178 2.80079 17.1218V7.87103C2.80003 7.57457 2.87731 7.28313 3.02487 7.026C3.17243 6.76887 3.38506 6.55511 3.64141 6.40619L11.6578 1.77807C11.916 1.63679 12.2057 1.56274 12.5 1.56274C12.7944 1.56274 13.084 1.63679 13.3422 1.77807L21.3578 6.40619C21.6136 6.55486 21.8259 6.768 21.9735 7.02435C22.1212 7.28071 22.199 7.5713 22.1992 7.86713V17.1218C22.1988 17.4178 22.1209 17.7085 21.9733 17.9651C21.8257 18.2217 21.6135 18.4352 21.3578 18.5843L13.3422 23.2124C13.0861 23.3602 12.7956 23.4378 12.5 23.4374Z" fill="#83CD29"/>
<path d="M10.9797 14.0258C10.9797 13.9636 11.0044 13.904 11.0484 13.8601C11.0923 13.8161 11.152 13.7914 11.2141 13.7914H12.2508C12.3062 13.7916 12.3598 13.8114 12.402 13.8473C12.4441 13.8832 12.4723 13.9328 12.4813 13.9875C12.6375 15.043 13.1063 15.575 15.2258 15.575C16.9141 15.575 17.6336 15.193 17.6336 14.2969C17.6336 13.7805 17.4297 13.3969 14.8055 13.1398C12.6118 12.9227 11.2555 12.4367 11.2555 10.6836C11.2555 9.06641 12.6188 8.10156 14.904 8.10156C17.4719 8.10156 18.743 8.99297 18.904 10.9055C18.9064 10.9374 18.9023 10.9695 18.8919 10.9998C18.8814 11.0301 18.8649 11.0579 18.8433 11.0815C18.8217 11.1052 18.7955 11.1241 18.7663 11.1373C18.7371 11.1504 18.7055 11.1574 18.6735 11.1578H17.6297C17.5774 11.1571 17.5268 11.1388 17.486 11.106C17.4452 11.0731 17.4166 11.0276 17.4047 10.9766C17.1555 9.86641 16.5454 9.51172 14.9047 9.51172C13.061 9.51172 12.8469 10.1539 12.8469 10.6352C12.8469 11.218 13.1 11.3883 15.5891 11.7172C18.0524 12.043 19.2227 12.5039 19.2227 14.2352C19.2227 15.982 17.7665 16.982 15.2266 16.982C11.7149 16.9867 10.9797 15.3766 10.9797 14.0258Z" fill="#83CD29"/>
</svg>
