<svg width="25" height="25" viewBox="0 0 25 25" fill="none" xmlns="http://www.w3.org/2000/svg">
<g clip-path="url(#clip0_1308_33)">
<path d="M23.2105 10.2301C23.4898 9.38844 23.5863 8.49683 23.4936 7.61484C23.401 6.73286 23.1212 5.8808 22.673 5.11556C22.0083 3.95865 20.9935 3.04269 19.7747 2.49977C18.556 1.95685 17.1963 1.81502 15.8917 2.09472C15.1507 1.27042 14.2059 0.655562 13.1522 0.311879C12.0984 -0.0318038 10.9728 -0.0922138 9.88834 0.136715C8.80386 0.365643 7.79869 0.875852 6.97376 1.61612C6.14883 2.35638 5.53316 3.30064 5.18858 4.3541C4.31943 4.53229 3.49833 4.89395 2.78015 5.41489C2.06196 5.93583 1.46324 6.60407 1.024 7.37493C0.352068 8.52992 0.064908 9.86869 0.204039 11.1976C0.34317 12.5266 0.901382 13.7769 1.79795 14.7676C1.51719 15.609 1.41935 16.5006 1.51097 17.3828C1.60259 18.2651 1.88155 19.1175 2.3292 19.8833C2.9947 21.0406 4.01048 21.9567 5.23014 22.4996C6.4498 23.0425 7.81034 23.1842 9.11566 22.9041C9.70442 23.5674 10.4279 24.0975 11.2379 24.4589C12.0479 24.8204 12.9256 25.0048 13.8125 24.9999C15.1497 25.0011 16.4527 24.5774 17.5334 23.7899C18.6141 23.0024 19.4166 21.8919 19.825 20.6187C20.6939 20.44 21.5146 20.0782 22.2326 19.5573C22.9505 19.0364 23.5492 18.3684 23.9886 17.5978C24.6525 16.4447 24.9348 15.111 24.795 13.7877C24.6553 12.4644 24.1006 11.2192 23.2105 10.2301ZM13.8125 23.3645C12.7177 23.3663 11.6572 22.9828 10.8167 22.2812L10.9636 22.1968L15.9417 19.3239C16.0654 19.2512 16.1681 19.1475 16.2396 19.0232C16.3112 18.8988 16.3493 18.758 16.35 18.6145V11.5968L18.4542 12.8135C18.4646 12.8187 18.4736 12.8264 18.4805 12.8358C18.4874 12.8452 18.4919 12.8561 18.4938 12.8676V18.6833C18.491 19.924 17.997 21.1131 17.1196 21.9904C16.2423 22.8677 15.0532 23.3618 13.8125 23.3645ZM3.75004 19.0666C3.20056 18.1183 3.00321 17.0065 3.19275 15.927L3.34066 16.0156L8.32295 18.8895C8.44615 18.9618 8.58639 18.9998 8.7292 18.9998C8.87202 18.9998 9.01226 18.9618 9.13545 18.8895L15.2219 15.3801V17.8093C15.2215 17.822 15.2181 17.8344 15.2122 17.8456C15.2062 17.8568 15.1978 17.8664 15.1875 17.8739L10.1459 20.7812C9.07004 21.4005 7.79245 21.5678 6.59342 21.2464C5.39438 20.925 4.3718 20.141 3.75004 19.0666ZM2.43754 8.22493C2.99063 7.27035 3.8637 6.54231 4.90212 6.16972V12.0833C4.90012 12.2262 4.93658 12.3671 5.00768 12.4912C5.07878 12.6153 5.18191 12.7179 5.30629 12.7885L11.3636 16.2822L9.25941 17.4989C9.24802 17.5049 9.23532 17.5081 9.22243 17.5081C9.20955 17.5081 9.19685 17.5049 9.18545 17.4989L4.1542 14.5968C3.07997 13.9746 2.29613 12.952 1.97436 11.753C1.6526 10.554 1.81915 9.27637 2.43754 8.19993V8.22493ZM19.7261 12.2406L13.65 8.71243L15.749 7.49993C15.7604 7.49391 15.7731 7.49077 15.786 7.49077C15.7989 7.49077 15.8116 7.49391 15.823 7.49993L20.8542 10.4072C21.6239 10.8509 22.2515 11.5044 22.6636 12.2915C23.0757 13.0786 23.2553 13.9667 23.1815 14.8521C23.1077 15.7374 22.7834 16.5835 22.2466 17.2914C21.7098 17.9993 20.9826 18.5399 20.15 18.8499V12.9353C20.1457 12.7927 20.1043 12.6537 20.03 12.5319C19.9556 12.4101 19.8509 12.3097 19.7261 12.2406ZM21.8198 9.0916L21.673 9.00306L16.7 6.10514C16.576 6.03244 16.4349 5.99412 16.2912 5.99412C16.1475 5.99412 16.0063 6.03244 15.8823 6.10514L9.80108 9.61452V7.18431C9.79981 7.17208 9.80185 7.15973 9.80698 7.14855C9.81211 7.13738 9.82015 7.12778 9.83025 7.12077L14.8615 4.21764C15.6327 3.77381 16.5143 3.55865 17.4032 3.5973C18.2922 3.63595 19.1518 3.92682 19.8815 4.4359C20.6113 4.94499 21.1811 5.65127 21.5243 6.4722C21.8676 7.29313 21.9701 8.19479 21.8198 9.07181V9.0916ZM8.65316 13.3989L6.549 12.1864C6.53841 12.18 6.52937 12.1714 6.52253 12.1612C6.51568 12.1509 6.5112 12.1392 6.50941 12.127V6.32806C6.51116 5.43858 6.76595 4.56795 7.24402 3.81787C7.72209 3.06778 8.40371 2.4692 9.20927 2.09203C10.0148 1.71487 10.9111 1.57469 11.7933 1.68786C12.6756 1.80104 13.5074 2.1629 14.1917 2.73118L14.0438 2.81452L9.0667 5.68743C8.94283 5.76004 8.83995 5.8636 8.76818 5.98797C8.69641 6.11233 8.65821 6.25322 8.65733 6.39681L8.65316 13.3989ZM9.79587 10.9353L12.5063 9.37285L15.2219 10.9353V14.0593L12.5167 15.6218L9.80108 14.0593L9.79587 10.9353Z" fill="white"/>
</g>
<defs>
<clipPath id="clip0_1308_33">
<rect width="25" height="25" fill="white"/>
</clipPath>
</defs>
</svg>
