<svg width="26" height="25" viewBox="0 0 26 25" fill="none" xmlns="http://www.w3.org/2000/svg">
<g clip-path="url(#clip0_1308_27)">
<path d="M12.4427 0.00708008C6.08661 0.00708008 6.48347 2.76345 6.48347 2.76345L6.49053 5.61914H12.556V6.47649H4.08142C4.08142 6.47649 0.0141602 6.01522 0.0141602 12.4285C0.0141602 18.8419 3.56416 18.6144 3.56416 18.6144H5.68279V15.6384C5.68279 15.6384 5.56857 12.0884 9.17612 12.0884H15.192C15.192 12.0884 18.5719 12.143 18.5719 8.82179V3.33041C18.5719 3.33041 19.0852 0.00708008 12.4427 0.00708008ZM9.09818 1.92747C9.24151 1.92734 9.38346 1.95548 9.51591 2.01027C9.64835 2.06506 9.7687 2.14543 9.87005 2.24678C9.9714 2.34813 10.0518 2.46848 10.1066 2.60092C10.1613 2.73337 10.1895 2.87532 10.1894 3.01865C10.1895 3.16198 10.1613 3.30393 10.1066 3.43638C10.0518 3.56882 9.9714 3.68916 9.87005 3.79051C9.7687 3.89187 9.64835 3.97224 9.51591 4.02703C9.38346 4.08182 9.24151 4.10995 9.09818 4.10983C8.95485 4.10995 8.8129 4.08182 8.68045 4.02703C8.54801 3.97224 8.42767 3.89187 8.32631 3.79051C8.22496 3.68916 8.14459 3.56882 8.0898 3.43638C8.03501 3.30393 8.00687 3.16198 8.007 3.01865C8.00687 2.87532 8.03501 2.73337 8.0898 2.60092C8.14459 2.46848 8.22496 2.34813 8.32631 2.24678C8.42767 2.14543 8.54801 2.06506 8.68045 2.01027C8.8129 1.95548 8.95485 1.92734 9.09818 1.92747Z" fill="url(#paint0_linear_1308_27)"/>
<path d="M12.6233 24.9143C18.9793 24.9143 18.5825 22.1579 18.5825 22.1579L18.5754 19.3023H12.5098V18.4449H20.9844C20.9844 18.4449 25.0517 18.9062 25.0517 12.4928C25.0517 6.07946 21.5017 6.30691 21.5017 6.30691H19.3831V9.28289C19.3831 9.28289 19.4973 12.8329 15.8897 12.8329H9.87384C9.87384 12.8329 6.49394 12.7783 6.49394 16.0996V21.591C6.49394 21.591 5.9807 24.9143 12.6232 24.9143M15.9677 22.9941C15.8243 22.9942 15.6824 22.9661 15.5499 22.9113C15.4175 22.8565 15.2971 22.7761 15.1958 22.6748C15.0944 22.5734 15.0141 22.4531 14.9593 22.3206C14.9045 22.1882 14.8764 22.0462 14.8765 21.9029C14.8763 21.7595 14.9045 21.6176 14.9593 21.4851C15.014 21.3527 15.0944 21.2323 15.1958 21.131C15.2971 21.0296 15.4175 20.9492 15.5499 20.8944C15.6824 20.8396 15.8243 20.8115 15.9677 20.8116C16.111 20.8115 16.2529 20.8396 16.3854 20.8944C16.5178 20.9492 16.6382 21.0296 16.7395 21.1309C16.8409 21.2323 16.9212 21.3526 16.976 21.4851C17.0308 21.6175 17.059 21.7595 17.0588 21.9028C17.059 22.0461 17.0308 22.1881 16.976 22.3205C16.9212 22.453 16.8409 22.5733 16.7395 22.6747C16.6382 22.776 16.5178 22.8564 16.3854 22.9112C16.2529 22.966 16.111 22.9942 15.9677 22.9941Z" fill="url(#paint1_linear_1308_27)"/>
</g>
<defs>
<linearGradient id="paint0_linear_1308_27" x1="240.623" y1="224.033" x2="1481.4" y2="1452.43" gradientUnits="userSpaceOnUse">
<stop stop-color="#387EB8"/>
<stop offset="1" stop-color="#366994"/>
</linearGradient>
<linearGradient id="paint1_linear_1308_27" x1="361.633" y1="389.247" x2="1694.09" y2="1648.86" gradientUnits="userSpaceOnUse">
<stop stop-color="#FFE052"/>
<stop offset="1" stop-color="#FFC331"/>
</linearGradient>
<clipPath id="clip0_1308_27">
<rect width="25.098" height="25" fill="white"/>
</clipPath>
</defs>
</svg>
