<svg width="24" height="25" viewBox="0 0 24 25" fill="none" xmlns="http://www.w3.org/2000/svg">
<g clip-path="url(#clip0_1308_12)">
<path d="M8.22512 5.32184C8.81545 5.43078 8.65129 6.32077 8.06091 6.21183C3.37844 5.34162 0.0978224 7.19215 2.58142 11.7743C2.87824 12.2946 2.09079 12.7438 1.79401 12.2234C-1.16316 7.04298 2.67141 4.27018 8.22512 5.32184ZM20.0344 14.1086C24.2202 8.99001 22.3769 5.18351 17.344 5.12126C16.7463 5.11344 16.7352 6.01833 17.333 6.02614C21.7879 6.0071 22.8478 9.3027 19.341 13.5255C18.9545 13.9954 19.6624 14.555 20.0344 14.1085V14.1086ZM15.6316 22.1369C15.9375 21.629 15.1758 21.1556 14.855 21.6692C12.3226 25.6765 9.22722 24.4419 7.35378 19.6097C7.15124 19.034 6.29592 19.335 6.49846 19.9107C8.15583 24.9726 12.551 27.2028 15.6316 22.1369V22.1369ZM12.8576 13.1229C12.8576 12.1465 11.7934 11.533 10.9467 12.0212C10.0998 12.5094 10.0998 13.7365 10.9467 14.2247C11.7934 14.7129 12.8576 14.0993 12.8576 13.1229ZM1.7322 17.2362C1.87976 13.2138 7.73913 8.08302 14.6489 6.3175C15.2422 6.18854 15.05 5.30422 14.4566 5.43322C8.07443 6.84621 0.502949 12.5196 0.821211 17.4849C-0.285039 18.1526 -0.273516 19.773 0.855147 20.4214C1.99514 21.0762 3.42775 20.2532 3.42775 18.9436C3.42775 17.9592 2.61833 17.2498 1.7322 17.2362ZM20.4968 20.3725C21.3114 20.9025 22.4897 20.6598 22.9653 19.7084C23.5506 18.5374 22.6374 17.1611 21.3254 17.2371C20.0936 17.3085 19.3684 18.6105 19.8857 19.6756C15.9061 21.407 8.51394 18.51 4.1677 13.9049C3.76994 13.466 3.0986 14.0745 3.49631 14.5133C7.61862 19.0716 15.9948 22.7575 20.4968 20.3725ZM13.2981 1.70548C13.2985 0.585856 12.1799 -0.282455 11.0472 0.0858557C9.79748 0.49235 9.45949 2.10246 10.4403 2.97721C11.2655 3.71305 12.508 3.46813 13.0418 2.60905C16.1342 4.65348 18.0532 11.6404 16.0085 19.0352C15.8316 19.6076 16.6981 19.8753 16.8749 19.3029C18.7329 13.3013 17.7278 4.41359 13.2981 1.70544V1.70548Z" fill="#00C2FF"/>
</g>
<defs>
<clipPath id="clip0_1308_12">
<rect width="23.1445" height="25" fill="white"/>
</clipPath>
</defs>
</svg>
