<svg width="25" height="25" viewBox="0 0 25 25" fill="none" xmlns="http://www.w3.org/2000/svg">
<g clip-path="url(#clip0_1308_19)">
<path d="M14.5543 24.5843C13.9162 25.3884 12.6199 24.948 12.6057 23.9209L12.3799 8.90015H22.4805C24.3096 8.90015 25.3295 11.0128 24.192 12.4449L14.5543 24.5843Z" fill="url(#paint0_linear_1308_19)"/>
<path d="M14.5543 24.5843C13.9162 25.3884 12.6199 24.948 12.6057 23.9209L12.3799 8.90015H22.4805C24.3096 8.90015 25.3295 11.0128 24.192 12.4449L14.5543 24.5843Z" fill="url(#paint1_linear_1308_19)" fill-opacity="0.2"/>
<path d="M10.446 0.415533C11.0841 -0.388568 12.3806 0.0518615 12.3947 1.07881L12.4939 16.0997H2.51986C0.69076 16.0997 -0.329162 13.987 0.808143 12.555L10.446 0.415533Z" fill="#3ECF8E"/>
</g>
<defs>
<linearGradient id="paint0_linear_1308_19" x1="12.3808" y1="12.2316" x2="21.3574" y2="15.9964" gradientUnits="userSpaceOnUse">
<stop stop-color="#249361"/>
<stop offset="1" stop-color="#3ECF8E"/>
</linearGradient>
<linearGradient id="paint1_linear_1308_19" x1="8.40098" y1="6.78257" x2="12.4947" y2="14.4891" gradientUnits="userSpaceOnUse">
<stop/>
<stop offset="1" stop-opacity="0"/>
</linearGradient>
<clipPath id="clip0_1308_19">
<rect width="25" height="25" fill="white"/>
</clipPath>
</defs>
</svg>
